<svg xmlns="http://www.w3.org/2000/svg" viewBox="0 0 64 64">
  <circle cx="32" cy="32" r="30" fill="#000"/>
  <g transform="translate(8 8) scale(.75)">
    <g fill="#fff">
      <rect x="27" y="1" width="10" height="15" rx="3"/>
      <rect x="27" y="48" width="10" height="15" rx="3"/>
      <rect x="48" y="27" width="15" height="10" rx="3"/>
      <rect x="1" y="27" width="15" height="10" rx="3"/>
      <rect x="44.5" y="5.8" width="10" height="15" rx="3" transform="rotate(45 49.5 13.3)"/>
      <rect x="9.5" y="40.8" width="10" height="15" rx="3" transform="rotate(45 14.5 48.3)"/>
      <rect x="43.8" y="41.5" width="15" height="10" rx="3" transform="rotate(45 51.3 46.5)"/>
      <rect x="5.2" y="12.5" width="15" height="10" rx="3" transform="rotate(45 12.7 17.5)"/>
      <circle cx="32" cy="32" r="23"/>
    </g>
    <circle cx="32" cy="32" r="13" fill="#000"/>
    <g fill="#fff">
      <ellipse cx="29.5" cy="39.5" rx="6.5" ry="4.7" transform="rotate(-18 29.5 39.5)"/>
      <rect x="34.5" y="22.5" width="4" height="17" rx="2"/>
      <path d="M36.5 22.5c6.2.6 10 3.8 10 8.6-2.4-2.4-5.1-3.7-8-3.9v3.3h-2z"/>
    </g>
  </g>
</svg>
